# xmcd
#
# Track frame offsets: 
#        150
#        27619
#        53075
#        67503
#        83183
#        104311
#        122718
#        144311
#        161036
#        188251
#
# Disc length: 2755 seconds
#
# Revision: 0
# Processed by: cddbd v1.5.1PL2 Copyright (c) Steve Scherf et al.
# Submitted via: ExactAudioCopy v0.95b3
#
DISCID=780ac10a
DTITLE=Frank Trainor (Grace n Gravity - Grace and Gravity
DYEAR=2005
DGENRE=
TTITLE0=Taste Of Your Own Poison
TTITLE1=Down On Highland Street
TTITLE2=Sanity Zone
TTITLE3=A Way Of Life
TTITLE4=Heaven Helps
TTITLE5=A Buck Is A Buck
TTITLE6=When The Tide Comes Rushing In
TTITLE7=You Got No Trouble Now
TTITLE8=Torn And Twisted
TTITLE9=Inside Out
EXTD=
EXTT0=
EXTT1=
EXTT2=
EXTT3=
EXTT4=
EXTT5=
EXTT6=
EXTT7=
EXTT8=
EXTT9=
PLAYORDER=
